<?xml version="1.0" encoding="UTF-8"?>
<svg version="1.1" xmlns="http://www.w3.org/2000/svg" width="800" height="320">
<path d="M0 0 C3.45926215 0.05983001 4.43352756 0.12973386 7.25 2.3125 C8.075 3.323125 8.9 4.33375 9.75 5.375 C11.19795414 6.82295414 12.65741533 8.25944623 14.125 9.6875 C17.54852426 13.11102426 20.79727304 16.62320512 23.953125 20.29296875 C26.67860586 23.45097158 29.47306603 26.54473995 32.27734375 29.6328125 C34.08151285 31.63364458 35.86139429 33.64707813 37.62890625 35.6796875 C38.60659449 36.78661411 39.58445644 37.89338733 40.5625 39 C41.01850586 39.53334961 41.47451172 40.06669922 41.94433594 40.61621094 C43.39828703 42.29585082 43.39828703 42.29585082 45.75 44.375 C49.79111424 44.80171244 49.79111424 44.80171244 52.30078125 42.25 C53.21214844 41.30125 54.12351562 40.3525 55.0625 39.375 C55.96613281 38.446875 56.86976563 37.51875 57.80078125 36.5625 C59.95807291 34.26510541 62.03942232 31.9108666 64.10546875 29.53125 C68.51721075 24.45548505 73.15593259 19.60324331 77.7890625 14.73046875 C78.45679688 14.02535156 79.12453125 13.32023438 79.8125 12.59375 C80.79839111 11.5562561 80.79839111 11.5562561 81.80419922 10.49780273 C84.3406856 7.73058203 86.69693608 4.82600866 89.02392578 1.88110352 C91.24059718 -0.05307553 92.72611146 -0.12551719 95.625 -0.1875 C99.49585635 0.12085635 99.49585635 0.12085635 100.75 1.375 C102.15529106 12.50747778 101.89726912 23.82162553 101.8828125 35.01953125 C101.88348798 36.88368238 101.88446002 38.74783342 101.88571167 40.61198425 C101.88717536 44.49222667 101.88507601 48.37244586 101.88037109 52.25268555 C101.87465458 57.20624785 101.8779734 62.15975618 101.88394356 67.11331654 C101.88756822 70.95247296 101.88640218 74.79161672 101.88381577 78.63077354 C101.8831528 80.457079 101.88395266 82.28338564 101.88629532 84.10968971 C101.88885555 86.66405895 101.88493503 89.21834219 101.87939453 91.77270508 C101.88141876 92.51316574 101.88344299 93.2536264 101.88552856 94.01652527 C101.82860181 108.29639819 101.82860181 108.29639819 99.75 110.375 C97.83541718 110.47471786 95.91717683 110.50580589 94 110.5078125 C92.8346875 110.50910156 91.669375 110.51039063 90.46875 110.51171875 C89.2415625 110.50785156 88.014375 110.50398438 86.75 110.5 C84.90921875 110.50580078 84.90921875 110.50580078 83.03125 110.51171875 C81.8659375 110.51042969 80.700625 110.50914062 79.5 110.5078125 C78.42234375 110.50668457 77.3446875 110.50555664 76.234375 110.50439453 C73.75 110.375 73.75 110.375 72.75 109.375 C71.8785031 103.74222112 71.55745558 98.19219561 71.43359375 92.5 C71.41281265 91.69006592 71.39203156 90.88013184 71.37062073 90.0456543 C71.30586344 87.48884576 71.24658806 84.93194519 71.1875 82.375 C71.14424434 80.62889719 71.10062796 78.88280328 71.05664062 77.13671875 C70.95025917 72.88290391 70.84878982 68.62899764 70.75 64.375 C68.82814783 66.27479442 66.90936048 68.17752436 64.9921875 70.08203125 C64.45231201 70.61509888 63.91243652 71.1481665 63.35620117 71.6973877 C59.7793014 75.25658004 56.49669588 78.92239315 53.4453125 82.94921875 C50.82636454 85.15179019 49.16614868 85.45821921 45.75 85.375 C43.22373135 83.75280014 41.32251382 81.65045797 39.3125 79.4375 C38.7455542 78.84227539 38.1786084 78.24705078 37.59448242 77.63378906 C33.95353 73.78363448 30.4037514 69.84382448 27.01953125 65.765625 C25.77942844 64.2401137 25.77942844 64.2401137 23.75 63.375 C23.75444122 63.9343222 23.75888245 64.49364441 23.76345825 65.06991577 C23.80761149 70.87698824 23.83783294 76.68401325 23.85986328 82.49121094 C23.86993789 84.66017594 23.88359798 86.82912731 23.90087891 88.99804688 C23.92506323 92.11071126 23.93646832 95.22319651 23.9453125 98.3359375 C23.95563507 99.309935 23.96595764 100.2839325 23.97659302 101.28744507 C23.97674408 102.18822784 23.97689514 103.08901062 23.97705078 104.01708984 C23.981492 104.81206879 23.98593323 105.60704773 23.99050903 106.42611694 C23.75 108.375 23.75 108.375 21.75 110.375 C19.15209961 110.61791992 19.15209961 110.61791992 15.90234375 110.60546875 C14.74025391 110.60353516 13.57816406 110.60160156 12.38085938 110.59960938 C11.16205078 110.58736328 9.94324219 110.57511719 8.6875 110.5625 C6.85348633 110.5615332 6.85348633 110.5615332 4.98242188 110.56054688 C-4.10988944 110.51511056 -4.10988944 110.51511056 -5.25 109.375 C-5.34762523 107.9732167 -5.37631658 106.56655547 -5.37698364 105.16137695 C-5.37980347 104.25271881 -5.38262329 103.34406067 -5.38552856 102.40786743 C-5.38350433 101.40315399 -5.3814801 100.39844055 -5.37939453 99.36328125 C-5.38114685 98.3113559 -5.38289917 97.25943054 -5.38470459 96.17562866 C-5.38912543 92.67956926 -5.38618429 89.18355997 -5.3828125 85.6875 C-5.38348547 83.26993805 -5.38445544 80.85237617 -5.38571167 78.43481445 C-5.38718896 73.36050779 -5.38503309 68.28621869 -5.38037109 63.21191406 C-5.3746738 56.69115297 -5.37795263 50.17043304 -5.38394356 43.64967346 C-5.38754833 38.65531094 -5.38641097 33.66095826 -5.38381577 28.66659546 C-5.38314626 26.26150508 -5.38397572 23.85641382 -5.38629532 21.45132446 C-5.38882048 18.09643165 -5.38498317 14.7416065 -5.37939453 11.38671875 C-5.38141876 10.38200531 -5.38344299 9.37729187 -5.38552856 8.34213257 C-5.38129883 6.97914536 -5.38129883 6.97914536 -5.37698364 5.58862305 C-5.37660662 4.79441452 -5.37622959 4.00020599 -5.37584114 3.18193054 C-5.13297866 -0.30528854 -3.04662491 0.13114611 0 0 Z " fill="#FD0000" transform="translate(233.25,155.625)"/>
<path d="M0 0 C3.57336651 0.05072602 4.46300719 0.14950565 7.375 2.4375 C8.15875 3.406875 8.9425 4.37625 9.75 5.375 C10.86463201 6.48963201 11.99046868 7.59312908 13.125 8.6875 C16.14003632 11.70253632 18.95110357 14.84587464 21.734375 18.07421875 C24.19480548 20.88273338 26.71987552 23.62950022 29.25 26.375 C34.93697924 32.55578492 40.57644622 38.75285116 45.75 45.375 C49.86737677 44.85441213 51.74002414 42.72387273 54.5625 39.8125 C55.45066406 38.89726562 56.33882813 37.98203125 57.25390625 37.0390625 C59.78904417 34.33332845 62.23781648 31.57791819 64.6484375 28.76171875 C67.57120406 25.44236863 70.59959212 22.22569204 73.625 19 C78.53570131 13.76248283 83.39424239 8.48884309 88.17578125 3.1328125 C90.63905937 0.38225381 90.63905937 0.38225381 92.78125 0.2421875 C94.00328125 0.24605469 94.00328125 0.24605469 95.25 0.25 C96.0646875 0.24742187 96.879375 0.24484375 97.71875 0.2421875 C99.75 0.375 99.75 0.375 100.75 1.375 C101.95583703 12.7907884 101.89903149 24.29696362 101.8828125 35.76171875 C101.88348877 37.47890741 101.88446146 39.19609597 101.88571167 40.9132843 C101.88717228 44.48231941 101.88508667 48.0513292 101.88037109 51.62036133 C101.87466172 56.15870257 101.87797096 60.6969848 101.88394356 65.23532391 C101.88758263 68.77096489 101.88639554 72.30659223 101.88381577 75.84223366 C101.8831564 77.51451436 101.88393957 79.18679637 101.88629532 80.85907555 C101.90823985 100.79603137 101.90823985 100.79603137 100.75 109.375 C98.10459403 112.02040597 90.37595815 110.56062153 86.8125 110.5625 C84.98428711 110.58086914 84.98428711 110.58086914 83.11914062 110.59960938 C81.37600586 110.60250977 81.37600586 110.60250977 79.59765625 110.60546875 C78.52523682 110.60957764 77.45281738 110.61368652 76.34790039 110.61791992 C73.75 110.375 73.75 110.375 71.75 108.375 C71.4715271 106.46408081 71.4715271 106.46408081 71.43115234 104.10888672 C71.41128265 103.22812469 71.39141296 102.34736267 71.37094116 101.43991089 C71.35938995 100.48778717 71.34783875 99.53566345 71.3359375 98.5546875 C71.31657135 97.58089142 71.2972052 96.60709534 71.2772522 95.60379028 C71.21735442 92.48594997 71.17103029 89.36807294 71.125 86.25 C71.08682961 84.13930659 71.04777844 82.02862892 71.0078125 79.91796875 C70.91164473 74.73711856 70.82662736 69.55617403 70.75 64.375 C70.2559668 64.8690332 69.76193359 65.36306641 69.25292969 65.87207031 C64.08528646 71.03971354 58.91764323 76.20735677 53.75 81.375 C53.10836914 82.14038086 52.46673828 82.90576172 51.80566406 83.69433594 C49.75 85.375 49.75 85.375 47.28588867 85.38867188 C44.1613679 84.13970584 42.51123033 82.5759512 40.17578125 80.15625 C39.34369141 79.30675781 38.51160156 78.45726562 37.65429688 77.58203125 C36.79900391 76.68871094 35.94371094 75.79539062 35.0625 74.875 C33.35226719 73.1126337 31.64012397 71.35211864 29.92578125 69.59375 C28.79523315 68.4171582 28.79523315 68.4171582 27.6418457 67.21679688 C25.87656421 65.31183062 25.87656421 65.31183062 23.75 64.375 C23.75444122 64.92179413 23.75888245 65.46858826 23.76345825 66.0319519 C23.80761356 71.70926304 23.83783379 77.38652561 23.85986328 83.06396484 C23.86993751 85.1844277 23.88359733 87.30487661 23.90087891 89.42529297 C23.92506489 92.46845943 23.93646869 95.51144266 23.9453125 98.5546875 C23.95563507 99.50681122 23.96595764 100.45893494 23.97659302 101.43991089 C23.97674408 102.32067291 23.97689514 103.20143494 23.97705078 104.10888672 C23.981492 104.88610077 23.98593323 105.66331482 23.99050903 106.46408081 C23.75 108.375 23.75 108.375 21.75 110.375 C19.15209961 110.61791992 19.15209961 110.61791992 15.90234375 110.60546875 C14.74025391 110.60353516 13.57816406 110.60160156 12.38085938 110.59960938 C11.16205078 110.58736328 9.94324219 110.57511719 8.6875 110.5625 C6.85348633 110.5615332 6.85348633 110.5615332 4.98242188 110.56054688 C-4.10988944 110.51511056 -4.10988944 110.51511056 -5.25 109.375 C-5.34762523 107.9732167 -5.37631658 106.56655547 -5.37698364 105.16137695 C-5.37980347 104.25271881 -5.38262329 103.34406067 -5.38552856 102.40786743 C-5.38350433 101.40315399 -5.3814801 100.39844055 -5.37939453 99.36328125 C-5.38114685 98.3113559 -5.38289917 97.25943054 -5.38470459 96.17562866 C-5.38912543 92.67956926 -5.38618429 89.18355997 -5.3828125 85.6875 C-5.38348547 83.26993805 -5.38445544 80.85237617 -5.38571167 78.43481445 C-5.38718896 73.36050779 -5.38503309 68.28621869 -5.38037109 63.21191406 C-5.3746738 56.69115297 -5.37795263 50.17043304 -5.38394356 43.64967346 C-5.38754833 38.65531094 -5.38641097 33.66095826 -5.38381577 28.66659546 C-5.38314626 26.26150508 -5.38397572 23.85641382 -5.38629532 21.45132446 C-5.38882048 18.09643165 -5.38498317 14.7416065 -5.37939453 11.38671875 C-5.38141876 10.38200531 -5.38344299 9.37729187 -5.38552856 8.34213257 C-5.38129883 6.97914536 -5.38129883 6.97914536 -5.37698364 5.58862305 C-5.37660662 4.79441452 -5.37622959 4.00020599 -5.37584114 3.18193054 C-5.13297866 -0.30528854 -3.04662491 0.13114611 0 0 Z " fill="#FD0000" transform="translate(361.25,155.625)"/>
<path d="M0 0 C5.97329539 -0.05008568 11.94646391 -0.08603807 17.91992188 -0.10986328 C19.94468317 -0.11981376 21.96943051 -0.13337897 23.99414062 -0.15087891 C62.9129513 -0.47841345 62.9129513 -0.47841345 77 12 C84.75543862 21.76552169 88.30176353 32.5609263 87 45 C85.4516919 53.46408426 81.56265192 62.01849272 75.0625 67.8125 C74.381875 68.534375 73.70125 69.25625 73 70 C73.33787553 73.71586033 74.57824545 76.36274496 76.51171875 79.51171875 C77.02283203 80.35283203 77.53394531 81.19394531 78.06054688 82.06054688 C78.59744141 82.92744141 79.13433594 83.79433594 79.6875 84.6875 C81.25632298 87.25661858 82.82514206 89.82573325 84.39208984 92.39599609 C85.49803963 94.18707724 86.62464416 95.96551598 87.76806641 97.73291016 C88.3254248 98.61124512 88.8827832 99.48958008 89.45703125 100.39453125 C89.96854736 101.1831958 90.48006348 101.97186035 91.00708008 102.78442383 C92 105 92 105 91.72143555 107.2253418 C91 109 91 109 90 110 C85.40290636 110.31052762 80.79378597 110.27848016 76.1875 110.3125 C74.24133789 110.35600586 74.24133789 110.35600586 72.25585938 110.40039062 C71.00998047 110.40876953 69.76410156 110.41714844 68.48046875 110.42578125 C67.33473389 110.44036377 66.18899902 110.45494629 65.00854492 110.4699707 C61.33370019 109.895916 60.27968608 108.87297164 58 106 C56.49496642 103.68541971 55.07355939 101.3824125 53.6875 99 C53.29071045 98.34370605 52.8939209 97.68741211 52.48510742 97.01123047 C50.5857166 93.84621696 48.88548106 90.74870962 47.3515625 87.3828125 C45.78899579 84.07524743 44.50546272 81.6690329 42 79 C38.52919048 78.1663322 38.52919048 78.1663322 34.76171875 78.1796875 C33.49674561 78.13312012 32.23177246 78.08655273 30.9284668 78.03857422 C29.96207275 78.02584473 28.99567871 78.01311523 28 78 C28.01047363 78.89831543 28.02094727 79.79663086 28.03173828 80.72216797 C28.0657947 84.05064447 28.09088618 87.37893622 28.10986328 90.70751953 C28.11992963 92.14895547 28.1335838 93.59037095 28.15087891 95.03173828 C28.17510012 97.10193934 28.18647641 99.17187076 28.1953125 101.2421875 C28.20578613 102.4885498 28.21625977 103.73491211 28.22705078 105.01904297 C28 108 28 108 26 110 C23.49389648 110.24291992 23.49389648 110.24291992 20.37109375 110.23046875 C19.25412109 110.22853516 18.13714844 110.22660156 16.98632812 110.22460938 C15.81521484 110.21236328 14.64410156 110.20011719 13.4375 110.1875 C12.26251953 110.18685547 11.08753906 110.18621094 9.87695312 110.18554688 C1.14012141 110.14012141 1.14012141 110.14012141 0 109 C-0.25757673 106.21623643 -0.43084408 103.46338996 -0.5546875 100.671875 C-0.59673309 99.72592468 -0.63877869 98.77997437 -0.68209839 97.80535889 C-1.29863017 81.59297107 -1.14948669 65.35545973 -1.13037109 49.13427734 C-1.12459417 44.18025534 -1.12801661 39.22628658 -1.13394356 34.27226639 C-1.13754375 30.4376993 -1.13641448 26.60314504 -1.13381577 22.76857758 C-1.13314911 20.93927758 -1.1339658 19.10997643 -1.13629532 17.2806778 C-1.13882147 14.74730783 -1.13498549 12.21402731 -1.12939453 9.68066406 C-1.13141876 8.92760483 -1.13344299 8.17454559 -1.13552856 7.39866638 C-1.11428162 2.22856323 -1.11428162 2.22856323 0 0 Z M28 27 C27.91262355 28.85369611 27.89301847 30.71067541 27.90234375 32.56640625 C27.90556641 33.69111328 27.90878906 34.81582031 27.91210938 35.97460938 C27.92048828 37.15861328 27.92886719 38.34261719 27.9375 39.5625 C27.94201172 40.75037109 27.94652344 41.93824219 27.95117188 43.16210938 C27.96300325 46.10812226 27.97948713 49.05403681 28 52 C31.70791544 52.14592789 35.41508726 52.23427895 39.125 52.3125 C40.17171875 52.35439453 41.2184375 52.39628906 42.296875 52.43945312 C48.9637181 52.62567402 48.9637181 52.62567402 54.6796875 49.60546875 C58.60903416 45.19322259 58.39616148 41.76821603 58.34765625 35.99609375 C57.817274 31.42527147 56.52923425 29.90181483 53 27 C48.23440596 25.53158445 43.18837203 25.85278843 38.25 25.875 C37.37472656 25.87113281 36.49945312 25.86726563 35.59765625 25.86328125 C34.35048828 25.86521484 34.35048828 25.86521484 33.078125 25.8671875 C32.31918945 25.86831543 31.56025391 25.86944336 30.77832031 25.87060547 C28.97505033 25.80697389 28.97505033 25.80697389 28 27 Z " fill="#FD0000" transform="translate(589,156)"/>
<path d="M0 0 C1.04231277 -0.01283524 2.08462555 -0.02567047 3.15852356 -0.03889465 C4.86609077 -0.04997505 4.86609077 -0.04997505 6.6081543 -0.0612793 C8.36122139 -0.07338692 8.36122139 -0.07338692 10.14970398 -0.08573914 C12.63559475 -0.09960888 15.1215048 -0.11031801 17.60742188 -0.11816406 C21.37822865 -0.13525267 25.14813028 -0.17909888 28.91870117 -0.22338867 C31.33601244 -0.23352619 33.75333117 -0.24203896 36.1706543 -0.2487793 C37.2867659 -0.26628738 38.4028775 -0.28379547 39.55281067 -0.30183411 C51.40789648 -0.2696305 61.52666118 2.78879712 70.11987305 11.17700195 C77.87565942 19.83502745 81.47507454 28.60534517 81.3347168 40.20825195 C80.63015739 49.94398197 77.11921587 59.76010212 69.74487305 66.36450195 C68.87862305 67.29262695 68.01237305 68.22075195 67.11987305 69.17700195 C67.32063638 74.03182436 69.08656078 77.25741897 71.6472168 81.30981445 C71.99619522 81.86893524 72.34517365 82.42805603 72.70472717 83.00411987 C73.81312583 84.77602875 74.93465275 86.53914047 76.05737305 88.30200195 C77.17364692 90.07367394 78.28713837 91.847056 79.39930725 93.62130737 C80.40811813 95.22765308 81.42384708 96.82964799 82.43994141 98.43139648 C86.21566228 104.60226655 86.21566228 104.60226655 85.74487305 107.42700195 C85.53862305 108.00450195 85.33237305 108.58200195 85.11987305 109.17700195 C58.38989416 112.36173467 58.38989416 112.36173467 52.4128418 108.3684082 C50.5331725 105.71650457 49.32850043 103.19266507 48.11987305 100.17700195 C47.08647589 98.13113721 46.04471658 96.08947607 44.99487305 94.05200195 C44.5153418 93.05168945 44.03581055 92.05137695 43.54174805 91.02075195 C42.23904808 88.41535203 40.82227554 85.997862 39.24487305 83.55200195 C37.11987305 80.17700195 37.11987305 80.17700195 37.11987305 78.17700195 C32.16987305 78.17700195 27.21987305 78.17700195 22.11987305 78.17700195 C22.11987305 88.07700195 22.11987305 97.97700195 22.11987305 108.17700195 C14.2311916 110.43091094 14.2311916 110.43091094 10.60424805 110.44262695 C9.82823242 110.44520508 9.0522168 110.4477832 8.25268555 110.45043945 C7.46635742 110.44270508 6.6800293 110.4349707 5.86987305 110.42700195 C4.66717773 110.43860352 4.66717773 110.43860352 3.44018555 110.45043945 C-0.5010542 110.43725805 -2.53251589 110.40874266 -5.88012695 108.17700195 C-6.25206375 106.26264095 -6.25206375 106.26264095 -6.24761963 103.88108826 C-6.25318878 102.9794696 -6.25875793 102.07785095 -6.26449585 101.14891052 C-6.25528107 100.1571431 -6.24606628 99.16537567 -6.23657227 98.14355469 C-6.23861664 97.10123688 -6.24066101 96.05891907 -6.24276733 94.98501587 C-6.24578474 91.52669957 -6.22727037 88.06885562 -6.20825195 84.6105957 C-6.20519615 82.21688454 -6.20331867 79.82317161 -6.20257568 77.42945862 C-6.1979667 72.4081443 -6.18351698 67.38698983 -6.16137695 62.36572266 C-6.13307891 55.91336242 -6.12216467 49.4611282 -6.11769485 43.00871181 C-6.11354782 38.06495388 -6.10373661 33.12122171 -6.09181976 28.17747688 C-6.08610297 25.79750845 -6.08134897 23.41753751 -6.0775528 21.03756523 C-6.07071521 17.71868358 -6.05709517 14.39990403 -6.04125977 11.08105469 C-6.04014191 10.08726303 -6.03902405 9.09347137 -6.03787231 8.06956482 C-6.03216217 7.17076599 -6.02645203 6.27196716 -6.02056885 5.34593201 C-6.01759418 4.56039664 -6.01461952 3.77486128 -6.01155472 2.96552181 C-5.73677006 -0.77385415 -3.170603 0.03389341 0 0 Z M22.11987305 26.17700195 C22.09100553 30.32282082 22.07311977 34.46861412 22.05737305 38.61450195 C22.04899414 39.79850586 22.04061523 40.98250977 22.03198242 42.20239258 C22.02875977 43.32709961 22.02553711 44.45180664 22.0222168 45.6105957 C22.01697998 46.65272217 22.01174316 47.69484863 22.00634766 48.76855469 C21.84681749 51.12828943 21.84681749 51.12828943 23.11987305 52.17700195 C26.00618645 52.30495193 28.85800748 52.36222883 31.74487305 52.36450195 C32.54022461 52.37674805 33.33557617 52.38899414 34.1550293 52.40161133 C39.1911971 52.41401568 43.39909855 51.99314705 48.11987305 50.17700195 C51.73317423 45.63721329 52.72885731 42.02899324 52.4440918 36.25512695 C51.84285299 32.40140349 50.17465475 30.13884302 47.34936523 27.5625 C44.58716749 25.84595684 42.930694 25.83015494 39.69799805 25.8840332 C38.67319336 25.89370117 37.64838867 25.90336914 36.5925293 25.91333008 C34.99731445 25.95103516 34.99731445 25.95103516 33.36987305 25.98950195 C32.29092773 26.00303711 31.21198242 26.01657227 30.1003418 26.03051758 C27.43967885 26.06583611 24.78003009 26.11515996 22.11987305 26.17700195 Z " fill="#FD0000" transform="translate(137.880126953125,35.822998046875)"/>
<path d="M0 0 C7.47679919 6.21149471 12.24652786 13.40972284 13.46875 23.1875 C13.324375 24.0125 13.18 24.8375 13.03125 25.6875 C9.94359277 27.74593815 9.25519048 27.94258393 5.7578125 27.953125 C4.9328125 27.95570313 4.1078125 27.95828125 3.2578125 27.9609375 C2.39929688 27.95320313 1.54078125 27.94546875 0.65625 27.9375 C-0.61992187 27.94910156 -0.61992187 27.94910156 -1.921875 27.9609375 C-10.07764137 27.93553013 -10.07764137 27.93553013 -13.96875 25.6875 C-15.36587274 23.73152816 -16.70654907 21.73313599 -17.96875 19.6875 C-20.95590138 18.19392431 -24.00762936 18.46246565 -27.28125 18.4375 C-28.59738281 18.41171875 -29.91351563 18.3859375 -31.26953125 18.359375 C-36.10888776 18.78863154 -38.5883981 20.3071481 -41.96875 23.6875 C-42.55244443 27.10288144 -42.55244443 27.10288144 -41.96875 30.6875 C-38.46214555 34.20131144 -35.59275405 35.29673356 -30.7421875 36.03125 C-28.94587891 36.32322266 -28.94587891 36.32322266 -27.11328125 36.62109375 C-25.24736328 36.90146484 -25.24736328 36.90146484 -23.34375 37.1875 C-10.80372949 39.1075665 1.51063653 41.01524436 10.71875 50.4375 C16.1559124 58.07891742 18.01297579 67.07276504 16.62890625 76.3984375 C13.86855945 87.01515598 6.6279011 93.99159833 -2.28125 99.875 C-8.60937227 103.28791988 -15.84616824 105.0515552 -22.96875 105.6875 C-23.65839844 105.75195312 -24.34804687 105.81640625 -25.05859375 105.8828125 C-30.65459603 106.16214706 -35.74856084 105.24533956 -41.15625 103.9375 C-41.82132568 103.78063721 -42.48640137 103.62377441 -43.17163086 103.4621582 C-53.06523208 100.89933567 -61.87687164 94.63423894 -67.68359375 86.1953125 C-70.62000272 80.73103842 -71.77234077 75.87439088 -71.96875 69.6875 C-69.28969224 67.00844224 -61.75366752 68.30540367 -58.15625 68.25 C-56.95419922 68.20423828 -55.75214844 68.15847656 -54.51367188 68.11132812 C-51.22605007 68.06915562 -48.20348198 68.09260676 -44.96875 68.6875 C-42.328125 71.59765625 -42.328125 71.59765625 -40.96875 74.6875 C-34.82663176 78.608001 -28.07718499 78.47441162 -20.96875 77.6875 C-17.62375268 76.74624508 -15.86805694 75.7504684 -12.96875 73.6875 C-11.57754928 70.3322512 -11.81697885 69.14281344 -12.96875 65.6875 C-18.94360921 62.75643699 -23.64312482 61.65159012 -30.21875 61.4375 C-43.22382114 60.55511 -55.24658278 56.9547078 -64.28125 47.1875 C-70.34725019 38.20083305 -70.91678444 29.23239707 -69.96875 18.6875 C-68.17026036 10.38844542 -63.4098562 3.97914342 -56.64453125 -1.03515625 C-39.69373796 -11.86556892 -16.48733832 -11.94734661 0 0 Z " fill="#FD0000" transform="translate(90.96875,163.3125)"/>
<path d="M0 0 C7.09682084 7.09682084 13.16750105 16.10951201 14.0625 26.3125 C13.75 28.75 13.75 28.75 12.75 29.75 C8.5329708 30.22731069 4.3021707 30.30820025 0.0625 30.4375 C-1.12279297 30.51677734 -2.30808594 30.59605469 -3.52929688 30.67773438 C-7.03312685 30.76223504 -9.8762703 30.71696546 -13.25 29.75 C-15.47401803 27.35092365 -16.69891116 25.15466549 -18.00268555 22.16357422 C-20.00486532 18.28932304 -23.238315 17.04121035 -27.25 15.75 C-35.0503214 13.41466956 -44.02549485 13.93972224 -51.25 17.75 C-57.66515907 22.20885314 -60.64217539 28.22461973 -62.25 35.75 C-63.42031437 46.35521994 -61.81142066 55.09362601 -56.125 64.125 C-48.95550135 70.67106398 -42.1956923 72.56270207 -32.5234375 72.1640625 C-25.27847107 71.24763477 -21.10410985 68.22312706 -16.57421875 62.62890625 C-15.13803998 60.70807004 -15.13803998 60.70807004 -14.04101562 58.16308594 C-12.25 55.75 -12.25 55.75 -9.52270508 55.18237305 C-8.44915771 55.20855713 -7.37561035 55.23474121 -6.26953125 55.26171875 C-5.10615234 55.27783203 -3.94277344 55.29394531 -2.74414062 55.31054688 C-1.52919922 55.35244141 -0.31425781 55.39433594 0.9375 55.4375 C2.16404297 55.46005859 3.39058594 55.48261719 4.65429688 55.50585938 C7.68741559 55.56486947 10.71810222 55.64715408 13.75 55.75 C15.67808395 62.38794102 12.27409446 68.77663742 9.23828125 74.69921875 C1.80429482 87.12385341 -8.22919205 93.68604615 -21.98046875 97.890625 C-34.13002669 100.74268839 -49.01308583 100.20792974 -60.25 94.75 C-61.20003906 94.30269531 -62.15007812 93.85539062 -63.12890625 93.39453125 C-76.39042551 86.66453576 -84.88978427 76.74800114 -90.24609375 62.87109375 C-95.22325011 47.39736638 -94.22358766 30.59358709 -86.8984375 16.0703125 C-79.30623851 2.71291427 -68.58989145 -6.34804759 -53.74316406 -10.85986328 C-34.41753335 -15.91181051 -16.16948364 -11.19425791 0 0 Z " fill="#FD0000" transform="translate(461.25,47.25)"/>
<path d="M0 0 C1.28519531 -0.02578125 2.57039063 -0.0515625 3.89453125 -0.078125 C7.1875 0.25 7.1875 0.25 8.87025452 1.32962036 C10.88509047 4.26699991 10.55902301 6.7734617 10.55639648 10.30419922 C10.56016296 11.01837006 10.56392944 11.73254089 10.56781006 12.46835327 C10.57424375 14.01850955 10.57391131 15.56870527 10.56762505 17.11886215 C10.5585225 19.57390469 10.56872885 22.02818218 10.58424377 24.48318481 C10.62436483 31.46257313 10.62554714 38.4419023 10.62329102 45.42138672 C10.62323988 49.69141962 10.64242413 53.96104079 10.67262459 58.23096085 C10.68344692 60.64691027 10.67132052 63.06207268 10.65879822 65.47799683 C10.66770438 66.96434301 10.67777938 68.4506828 10.68920898 69.93701172 C10.68904282 71.2314621 10.68887665 72.52591248 10.68870544 73.85958862 C11.26987778 77.80993908 12.42122848 79.43175015 15.1875 82.25 C20.06290386 85.65455417 26.52501845 84.70778769 32.1875 84.25 C36.52935939 82.75280711 38.87710262 81.19803567 41.1875 77.25 C41.48530076 74.69775819 41.61504421 72.38656915 41.60400391 69.83520508 C41.61258926 69.0949559 41.62117462 68.35470673 41.63002014 67.59202576 C41.65506689 65.15109727 41.65945701 62.71057644 41.6640625 60.26953125 C41.67837124 58.57369239 41.69412802 56.87786517 41.71127319 55.18205261 C41.75311979 50.72236438 41.77812388 46.2627484 41.79876709 41.80291748 C41.83459471 34.65347554 41.89542082 27.5042115 41.95725632 20.35495567 C41.97640456 17.85267053 41.98809164 15.35043307 41.99868774 12.84809875 C42.00889409 11.32426854 42.01925152 9.80043932 42.02978516 8.27661133 C42.03134865 7.22544632 42.03134865 7.22544632 42.03294373 6.15304565 C42.07407213 1.36342787 42.07407213 1.36342787 43.1875 0.25 C45.11417507 0.16251793 47.04401861 0.14302666 48.97265625 0.15234375 C50.14248047 0.15556641 51.31230469 0.15878906 52.51757812 0.16210938 C53.74927734 0.17048828 54.98097656 0.17886719 56.25 0.1875 C58.10334961 0.19426758 58.10334961 0.19426758 59.99414062 0.20117188 C63.05864117 0.21300392 66.12304721 0.22948827 69.1875 0.25 C70.19779819 4.43469249 70.31662429 8.36532212 70.3203125 12.66381836 C70.32194901 13.39308533 70.32358551 14.12235229 70.32527161 14.87371826 C70.33383705 22.50121705 70.27935012 30.12887739 70.22021484 37.75610352 C70.19420406 41.36114975 70.1873449 44.96543491 70.19775391 48.57055664 C70.21025947 52.94704141 70.1882385 57.32214271 70.14276123 61.69839668 C70.1310825 63.35306307 70.13095215 65.00785846 70.14337158 66.66251945 C70.22292187 79.07142312 68.44589592 89.1303339 59.94433594 98.80186462 C50.80328986 107.68360793 38.69207612 111.9544597 26.046875 112.34765625 C13.24518986 111.66065482 0.13223998 106.92503692 -8.6875 97.375 C-21.1123394 82.07838168 -17.97456302 60.61746861 -17.94287109 42.11425781 C-17.93748217 38.36258967 -17.94285834 34.61103964 -17.94921875 30.859375 C-17.94855839 28.45052057 -17.9472781 26.04166622 -17.9453125 23.6328125 C-17.94733673 22.52326202 -17.94936096 21.41371155 -17.95144653 20.27053833 C-17.90071358 3.33821358 -17.90071358 3.33821358 -15.8125 1.25 C-10.56276485 0.30504767 -5.32711203 0.09272884 0 0 Z " fill="#FD0000" transform="translate(137.8125,155.75)"/>
<path d="M0 0 C1.75539345 0.00333092 1.75539345 0.00333092 3.54624939 0.00672913 C4.51207191 0.00651009 4.51207191 0.00651009 5.49740601 0.00628662 C7.63473327 0.00698567 9.77197438 0.01477761 11.9092865 0.02259827 C13.3875931 0.02446248 14.86590032 0.02588637 16.34420776 0.02688599 C20.24211827 0.03071093 24.13999174 0.040541 28.03788757 0.05158997 C32.01259358 0.0618046 35.98730554 0.06638372 39.96202087 0.07142639 C47.76607425 0.0821633 55.57009707 0.09923942 63.37413025 0.12025452 C64.82581347 3.5854366 65.62383094 6.17891824 65.604599 9.94837952 C65.60266541 10.83009827 65.60073181 11.71181702 65.59873962 12.62025452 C65.58649353 13.52775452 65.57424744 14.43525452 65.56163025 15.37025452 C65.56066345 16.75470764 65.56066345 16.75470764 65.55967712 18.16712952 C65.51459333 24.97979143 65.51459333 24.97979143 64.37413025 26.12025452 C61.48979205 26.20890659 58.62950867 26.23546748 55.745224 26.21791077 C54.44887779 26.21578835 54.44887779 26.21578835 53.12634277 26.21362305 C50.35473733 26.2080069 47.58321145 26.19545171 44.81163025 26.18275452 C42.93728245 26.17774159 41.0629334 26.17317833 39.18858337 26.16908264 C34.58373481 26.15803223 29.97894604 26.14075681 25.37413025 26.12025452 C25.37413025 30.74025452 25.37413025 35.36025452 25.37413025 40.12025452 C37.25413025 40.12025452 49.13413025 40.12025452 61.37413025 40.12025452 C61.41538025 44.03900452 61.45663025 47.95775452 61.49913025 51.99525452 C61.51733826 53.23001526 61.53554626 54.464776 61.55430603 55.73695374 C61.55930115 56.70648987 61.56429626 57.676026 61.56944275 58.67494202 C61.57991638 59.66993713 61.59039001 60.66493225 61.60118103 61.69007874 C61.37413025 64.12025452 61.37413025 64.12025452 59.37413025 66.12025452 C56.79309718 66.29528447 54.32104862 66.35187731 51.74131775 66.31556702 C50.6135643 66.31132217 50.6135643 66.31132217 49.46302795 66.30699158 C47.05823447 66.29578326 44.65381144 66.27067804 42.24913025 66.24525452 C40.62022937 66.23522553 38.99132267 66.22609954 37.3624115 66.21791077 C33.3660597 66.197542 29.37051035 66.158396 25.37413025 66.12025452 C25.37413025 71.73025452 25.37413025 77.34025452 25.37413025 83.12025452 C27.18385315 83.15783875 27.18385315 83.15783875 29.03013611 83.19618225 C33.48988686 83.29007974 37.94947538 83.39034285 42.40904236 83.49256897 C44.34227209 83.53598493 46.27554184 83.57765494 48.20884705 83.61756897 C50.98151227 83.67511083 53.75397482 83.73885071 56.526474 83.80384827 C57.39626389 83.82056076 58.26605377 83.83727325 59.16220093 83.85449219 C65.26025854 84.00638281 65.26025854 84.00638281 66.37413025 85.12025452 C66.47345178 86.81584177 66.50493032 88.51551199 66.50694275 90.21400452 C66.50823181 91.24396545 66.50952087 92.27392639 66.510849 93.33509827 C66.50698181 94.41919983 66.50311462 95.50330139 66.49913025 96.62025452 C66.50299744 97.70435608 66.50686462 98.78845764 66.510849 99.90541077 C66.50955994 100.9353717 66.50827087 101.96533264 66.50694275 103.02650452 C66.50581482 103.97847717 66.50468689 104.93044983 66.50352478 105.91127014 C66.37413025 108.12025452 66.37413025 108.12025452 65.37413025 109.12025452 C63.93572924 109.24265228 62.49153856 109.29801349 61.04820251 109.32557678 C59.66393822 109.35549461 59.66393822 109.35549461 58.25170898 109.38601685 C57.24152206 109.40272934 56.23133514 109.41944183 55.1905365 109.43666077 C54.14703537 109.45744186 53.10353424 109.47822296 52.02841187 109.49963379 C49.8031186 109.54302431 47.5777782 109.58404999 45.35240173 109.62294006 C42.00991854 109.68147115 38.66762952 109.74683189 35.32530212 109.81361389 C25.5182304 110.00359003 15.71037911 110.16287223 5.901474 110.21009827 C5.15813309 110.2168306 4.41479218 110.22356293 3.64892578 110.23049927 C-1.39158581 110.23739649 -1.39158581 110.23739649 -3.62586975 109.12025452 C-3.64920014 95.05607795 -3.6667832 80.99190437 -3.67768192 66.92771244 C-3.68291145 60.39789219 -3.69001037 53.86808489 -3.7013092 47.33827209 C-3.7121356 41.04244293 -3.71814606 34.74662625 -3.72074699 28.4507885 C-3.72260169 26.04290508 -3.72622315 23.63502237 -3.73159981 21.22714424 C-3.73880695 17.86736165 -3.73986083 14.50763142 -3.73939514 11.14784241 C-3.74299042 10.14155792 -3.74658569 9.13527344 -3.75028992 8.09849548 C-3.74891525 7.18839218 -3.74754059 6.27828888 -3.74612427 5.34060669 C-3.74750696 4.14734567 -3.74750696 4.14734567 -3.74891758 2.92997837 C-3.54865492 -0.01538135 -2.96336913 0.13571066 0 0 Z " fill="#FD0000" transform="translate(575.6258697509766,35.87974548339844)"/>
<path d="M0 0 C1.05832031 -0.06058594 2.11664063 -0.12117188 3.20703125 -0.18359375 C6.1875 0.4375 6.1875 0.4375 8.17724609 3.05883789 C10.13628403 6.3514206 11.77136963 9.61963553 13.33203125 13.1171875 C13.61843475 13.75398941 13.90483826 14.39079132 14.19992065 15.04689026 C14.81613358 16.41794078 15.43004066 17.79002958 16.0418396 19.16305542 C17.6957 22.87316626 19.36805101 26.57493368 21.0390625 30.27734375 C21.38243149 31.03908401 21.72580048 31.80082428 22.07957458 32.58564758 C25.60174556 40.38478096 29.2296736 48.1328553 32.875 55.875 C33.49898937 57.20249485 34.12285062 58.53004994 34.74658203 59.85766602 C35.66566808 61.81382051 36.58477426 63.7699654 37.50411987 65.72599792 C40.63869962 72.3956087 43.76649266 79.0681844 46.875 85.75 C47.35606201 86.77472412 47.83712402 87.79944824 48.33276367 88.85522461 C51.30937903 95.27167348 53.8811655 101.75084805 56.1875 108.4375 C53.16512907 111.45987093 49.62889254 110.94607873 45.5625 111.125 C44.78003906 111.17205078 43.99757813 111.21910156 43.19140625 111.26757812 C38.05251902 111.52750526 33.21153277 111.62598087 28.1875 110.4375 C26.09375 108.00390625 26.09375 108.00390625 24.6875 105 C24.2028125 104.01128906 23.718125 103.02257812 23.21875 102.00390625 C22.1875 99.4375 22.1875 99.4375 22.1875 97.4375 C7.9975 97.7675 -6.1925 98.0975 -20.8125 98.4375 C-22.7925 102.0675 -24.7725 105.6975 -26.8125 109.4375 C-32.26049347 112.32988926 -38.23931806 111.49523448 -44.25 111.0625 C-45.63348633 110.97742188 -45.63348633 110.97742188 -47.04492188 110.890625 C-49.30169779 110.75030733 -51.55715997 110.59902895 -53.8125 110.4375 C-55.2866316 105.87224606 -53.59246904 102.96149357 -51.625 98.8125 C-51.08141846 97.62950317 -51.08141846 97.62950317 -50.52685547 96.42260742 C-49.72404025 94.67927024 -48.91581884 92.9384154 -48.10302734 91.19970703 C-46.80346638 88.4181647 -45.51897636 85.63011804 -44.23828125 82.83984375 C-42.01101514 77.99284872 -39.77338623 73.15073398 -37.53163147 68.3104248 C-33.97264208 60.62538237 -30.4205573 52.93715258 -26.87002563 45.24819946 C-26.08386037 43.54579834 -25.29754529 41.8434664 -24.51107788 40.14120483 C-19.47353048 29.23681958 -14.45379508 18.32538721 -9.54052734 7.36425781 C-6.33676151 0.25285747 -6.33676151 0.25285747 0 0 Z M-0.8125 46.4375 C-2.32743843 49.82686136 -3.82175457 53.22493648 -5.3125 56.625 C-5.74175781 57.58470703 -6.17101563 58.54441406 -6.61328125 59.53320312 C-7.01933594 60.46455078 -7.42539062 61.39589844 -7.84375 62.35546875 C-8.22080078 63.20906982 -8.59785156 64.0626709 -8.98632812 64.94213867 C-10.07442042 67.7905066 -10.07442042 67.7905066 -9.8125 72.4375 C-2.8825 72.4375 4.0475 72.4375 11.1875 72.4375 C10.21017784 66.57356703 8.59718544 62.03372664 6.3125 56.625 C5.96058594 55.75423828 5.60867187 54.88347656 5.24609375 53.98632812 C4.89933594 53.15939453 4.55257812 52.33246094 4.1953125 51.48046875 C3.88223145 50.72789795 3.56915039 49.97532715 3.24658203 49.19995117 C2.24114439 47.09411423 2.24114439 47.09411423 -0.8125 46.4375 Z " fill="#FD0000" transform="translate(67.8125,34.5625)"/>
<path d="M0 0 C0.9590625 0.0103125 1.918125 0.020625 2.90625 0.03125 C4.34484375 0.01578125 4.34484375 0.01578125 5.8125 0 C8.40625 0.53125 8.40625 0.53125 9.87573242 2.15478516 C11.72683088 5.02902225 13.09189121 7.96398839 14.48828125 11.0859375 C14.77860733 11.73053925 15.06893341 12.37514099 15.36805725 13.03927612 C15.99442377 14.43096917 16.61863352 15.82363454 17.24090576 17.21716309 C18.91952868 20.97507392 20.61497071 24.72539414 22.30859375 28.4765625 C22.82646454 29.62511719 22.82646454 29.62511719 23.35479736 30.796875 C26.6015373 37.9878691 29.93093088 45.13796058 33.28125 52.28125 C38.39322687 63.20869359 43.49781948 74.13953211 48.55987549 85.09020996 C49.32692552 86.74728366 50.09590053 88.40346778 50.86688232 90.05871582 C51.94371811 92.37144872 53.01366279 94.68725219 54.08203125 97.00390625 C54.40425156 97.69212967 54.72647186 98.38035309 55.05845642 99.08943176 C58.11277763 105.75038335 58.11277763 105.75038335 58.40625 109.53125 C55.25750961 112.67999039 51.78724849 111.82601873 47.49023438 111.85351562 C46.32814453 111.85029297 45.16605469 111.84707031 43.96875 111.84375 C42.81052734 111.85986328 41.65230469 111.87597656 40.45898438 111.89257812 C39.34974609 111.89322266 38.24050781 111.89386719 37.09765625 111.89453125 C35.56927124 111.89900269 35.56927124 111.89900269 34.01000977 111.90356445 C31.40625 111.53125 31.40625 111.53125 29.71850586 110.33276367 C28.09720242 108.10697799 26.91129347 105.82552965 25.71875 103.34375 C25.28175781 102.44269531 24.84476563 101.54164063 24.39453125 100.61328125 C24.06839844 99.92621094 23.74226562 99.23914063 23.40625 98.53125 C17.69585731 98.23353552 11.99001131 98.01643422 6.27368164 97.87207031 C4.33212611 97.81188711 2.39111097 97.73010807 0.45141602 97.62597656 C-8.66870188 97.01287364 -8.66870188 97.01287364 -17.59375 98.53125 C-21.34414956 102.08854306 -22.98581576 105.67535016 -24.59375 110.53125 C-27.18330157 113.12080157 -34.54552603 111.71683792 -38.03125 111.71875 C-39.20236328 111.73099609 -40.37347656 111.74324219 -41.58007812 111.75585938 C-42.69705078 111.75779297 -43.81402344 111.75972656 -44.96484375 111.76171875 C-45.99536865 111.76582764 -47.02589355 111.76993652 -48.08764648 111.77416992 C-50.59375 111.53125 -50.59375 111.53125 -52.59375 109.53125 C-52.22998014 105.18783783 -50.34077081 101.41414294 -48.5234375 97.51171875 C-48.21068375 96.8293364 -47.89792999 96.14695404 -47.57569885 95.44389343 C-46.54531262 93.19971489 -45.50715174 90.95922958 -44.46875 88.71875 C-43.74191377 87.14030019 -43.01543779 85.56168445 -42.28930664 83.98291016 C-36.98470947 72.46668156 -31.6049707 60.98567777 -26.19775391 49.51733398 C-22.88494216 42.48137233 -19.62392912 35.42482754 -16.42578125 28.3359375 C-16.08232162 27.57542084 -15.738862 26.81490417 -15.38499451 26.03134155 C-13.7252304 22.35336039 -12.07179336 18.67271161 -10.42749023 14.98779297 C-9.83200726 13.66367456 -9.23639252 12.3396154 -8.640625 11.015625 C-7.86477051 9.27877441 -7.86477051 9.27877441 -7.07324219 7.50683594 C-3.71955895 0.76183738 -3.71955895 0.76183738 0 0 Z M2.40625 46.53125 C-0.57560584 52.25746874 -3.35778592 58.06523252 -5.96875 63.96875 C-6.49210938 65.14308594 -7.01546875 66.31742188 -7.5546875 67.52734375 C-8.93356483 70.5267689 -8.93356483 70.5267689 -7.59375 73.53125 C-0.66375 73.53125 6.26625 73.53125 13.40625 73.53125 C12.51209437 67.12209044 12.51209437 67.12209044 10.33984375 61.47265625 C9.93701172 60.59287109 9.53417969 59.71308594 9.11914062 58.80664062 C8.69826172 57.91138672 8.27738281 57.01613281 7.84375 56.09375 C7.41900391 55.17142578 6.99425781 54.24910156 6.55664062 53.29882812 C5.51457876 51.03907599 4.46432979 48.78353493 3.40625 46.53125 C3.07625 46.53125 2.74625 46.53125 2.40625 46.53125 Z " fill="#FD0000" transform="translate(522.59375,154.46875)"/>
<path d="M0 0 C3.88478364 0.11846276 3.88478364 0.11846276 7.5078125 -0.5703125 C11.84925281 -1.01371437 13.97225692 -0.9360717 17.92578125 1.01171875 C22.87703595 6.92688648 26.11911125 14.05899483 29.4453125 20.96777344 C30.96076873 24.0836554 32.54261668 27.15127358 34.17578125 30.20703125 C34.89507813 31.55692139 34.89507813 31.55692139 35.62890625 32.93408203 C36.75801836 35.14531097 36.75801836 35.14531097 38.92578125 36.01171875 C39.03019531 35.295 39.13460937 34.57828125 39.2421875 33.83984375 C40.26742503 29.59828961 42.51464499 26.33585896 44.765625 22.62890625 C46.38195932 19.96644235 47.88871835 17.26087153 49.3671875 14.51953125 C49.7907251 13.75286133 50.2142627 12.98619141 50.65063477 12.19628906 C51.48702425 10.68140404 52.30718993 9.15742317 53.10913086 7.62402344 C55.11450714 4.05617103 56.25989403 2.32709498 60.03515625 0.5390625 C65.10828939 -0.14856097 70.06080144 -0.31765124 75.17578125 -0.30078125 C76.66464844 -0.32495117 76.66464844 -0.32495117 78.18359375 -0.34960938 C79.13492188 -0.35025391 80.08625 -0.35089844 81.06640625 -0.3515625 C81.92782227 -0.35454346 82.78923828 -0.35752441 83.67675781 -0.3605957 C86.36467904 0.08437606 87.23884913 0.92852972 88.92578125 3.01171875 C84.05724134 14.00070883 77.40513127 23.84775313 70.90917969 33.91796875 C67.43393183 39.33873941 64.02374531 44.8000425 60.61328125 50.26171875 C59.96109619 51.30360352 59.30891113 52.34548828 58.63696289 53.41894531 C58.03489014 54.3828418 57.43281738 55.34673828 56.8125 56.33984375 C56.27842529 57.19481445 55.74435059 58.04978516 55.1940918 58.93066406 C53.31742069 62.00992191 52.79542736 63.75224184 52.75219727 67.33789062 C52.73870743 68.23221802 52.72521759 69.12654541 52.71131897 70.04797363 C52.70088058 71.01569702 52.6904422 71.98342041 52.6796875 72.98046875 C52.64675994 75.01562948 52.61354812 77.05078562 52.58007812 79.0859375 C52.53256552 82.30547029 52.48811998 85.52498306 52.44897461 88.74462891 C52.40939361 91.84427115 52.3578258 94.94353355 52.3046875 98.04296875 C52.29627335 99.01069214 52.28785919 99.97841553 52.27919006 100.97546387 C52.26254807 101.86979126 52.24590607 102.76411865 52.22875977 103.68554688 C52.2184523 104.47449341 52.20814484 105.26343994 52.19752502 106.07629395 C51.92578125 108.01171875 51.92578125 108.01171875 49.92578125 110.01171875 C47.41967773 110.25463867 47.41967773 110.25463867 44.296875 110.2421875 C43.17990234 110.24025391 42.06292969 110.23832031 40.91210938 110.23632812 C39.74099609 110.22408203 38.56988281 110.21183594 37.36328125 110.19921875 C36.18830078 110.19857422 35.01332031 110.19792969 33.80273438 110.19726562 C25.06590266 110.15184016 25.06590266 110.15184016 23.92578125 109.01171875 C23.8891718 105.89128983 23.91155099 102.78730982 23.9609375 99.66796875 C23.96698014 97.69792324 23.97013385 95.72786719 23.97070312 93.7578125 C23.972404 90.65882452 23.98718617 87.56367478 24.05249023 84.46533203 C24.33267201 70.12142037 22.61938146 60.46991421 14.15969849 48.73974609 C12.49184922 46.40402288 11.03040256 43.96106661 9.5625 41.49609375 C8.58100315 39.91698805 7.59794589 38.33885109 6.61328125 36.76171875 C6.08202637 35.90328369 5.55077148 35.04484863 5.00341797 34.16040039 C2.09533408 29.46616541 -0.84674865 24.79648873 -3.828125 20.1484375 C-4.43422607 19.19420898 -5.04032715 18.23998047 -5.66479492 17.25683594 C-6.83297201 15.418823 -8.01117256 13.58713318 -9.20043945 11.76269531 C-9.98487427 10.52277832 -9.98487427 10.52277832 -10.78515625 9.2578125 C-11.48584229 8.17004517 -11.48584229 8.17004517 -12.20068359 7.06030273 C-13.07421875 5.01171875 -13.07421875 5.01171875 -12.84228516 2.80883789 C-10.87144023 -1.80253831 -4.16118097 -0.12326277 0 0 Z " fill="#FD0000" transform="translate(692.07421875,155.98828125)"/>
<path d="M0 0 C1.10031303 0.00303635 1.10031303 0.00303635 2.22285461 0.00613403 C2.99192642 0.00438171 3.76099823 0.00262939 4.55337524 0.00082397 C7.10793787 -0.00359483 9.66243185 -0.00065646 12.21699524 0.00271606 C13.98437005 0.00204303 15.75174477 0.00107302 17.51911926 -0.00018311 C21.22815327 -0.00166012 24.93716324 0.00049458 28.64619446 0.00515747 C33.41147017 0.01085476 38.17668956 0.00757577 42.9419632 0.00158501 C46.59295581 -0.00202052 50.24393497 -0.00088206 53.89492798 0.0017128 C55.65248623 0.00238209 57.41004569 0.00155357 59.16760254 -0.00076675 C61.61964678 -0.00329314 64.07159855 0.0005471 66.52363586 0.00613403 C67.25717789 0.0041098 67.99071991 0.00208557 68.74649048 0 C73.7589826 0.02126592 73.7589826 0.02126592 74.87324524 1.13552856 C74.97270977 2.90412049 75.00404741 4.67664307 75.00605774 6.44802856 C75.0073468 7.52310669 75.00863586 8.59818481 75.00996399 9.70584106 C75.0060968 10.83763794 75.00222961 11.96943481 74.99824524 13.13552856 C75.00211243 14.26732544 75.00597961 15.39912231 75.00996399 16.56521606 C75.00867493 17.64029419 75.00738586 18.71537231 75.00605774 19.82302856 C75.00492981 20.81689575 75.00380188 21.81076294 75.00263977 22.83474731 C74.87324524 25.13552856 74.87324524 25.13552856 73.87324524 26.13552856 C72.01954913 26.22290502 70.16256983 26.2425101 68.30683899 26.23318481 C67.18213196 26.22996216 66.05742493 26.2267395 64.89863586 26.22341919 C63.71463196 26.21504028 62.53062805 26.20666138 61.31074524 26.19802856 C60.12287415 26.19351685 58.93500305 26.18900513 57.71113586 26.18435669 C54.76512298 26.17252531 51.81920843 26.15604143 48.87324524 26.13552856 C48.87768646 27.15838959 48.88212769 28.18125061 48.88670349 29.23510742 C48.9271879 38.85882922 48.95719991 48.48253381 48.97686958 58.10632133 C48.98732178 63.05440689 49.00150707 68.00242388 49.02412415 72.95046997 C49.04580146 77.72260337 49.05780304 82.49467069 49.06299973 87.26684952 C49.0667047 89.09057786 49.07393924 90.91430245 49.08470535 92.73800278 C49.09915245 95.28579368 49.10122605 97.83330898 49.10029602 100.38113403 C49.10748657 101.14070404 49.11467712 101.90027405 49.12208557 102.68286133 C49.10134956 107.90742424 49.10134956 107.90742424 46.87324524 110.13552856 C44.31075467 110.31031116 41.8703354 110.36948211 39.31074524 110.32302856 C38.23179993 110.3133606 38.23179993 110.3133606 37.13105774 110.30349731 C31.98987307 110.22939015 26.96695502 109.86320139 21.87324524 109.13552856 C20.23172585 104.11627421 19.59065559 99.65891623 19.64619446 94.36428833 C19.6459024 93.62199478 19.64561035 92.87970123 19.64530945 92.11491394 C19.64669182 89.68546452 19.66220085 87.25633 19.67793274 84.82693481 C19.68166677 83.1330024 19.6845119 81.4390678 19.68650818 79.74513245 C19.69411396 75.30474802 19.71373596 70.86449617 19.73591614 66.42416382 C19.75644063 61.88591301 19.76552398 57.34764061 19.77558899 52.80935669 C19.79698494 43.91802267 19.83108369 35.02678668 19.87324524 26.13552856 C19.12639465 26.1460022 18.37954407 26.15647583 17.61006165 26.16726685 C14.23949016 26.20873627 10.86897224 26.23482585 7.49824524 26.26052856 C6.32262024 26.27728638 5.14699524 26.29404419 3.93574524 26.31130981 C2.25351868 26.32097778 2.25351868 26.32097778 0.53730774 26.33084106 C-0.49958191 26.3413147 -1.53647156 26.35178833 -2.6047821 26.36257935 C-5.12675476 26.13552856 -5.12675476 26.13552856 -7.12675476 24.13552856 C-8.01701593 16.69656658 -7.03104726 8.53733015 -6.12675476 1.13552856 C-4.42112373 -0.57010247 -2.27513346 0.00965245 0 0 Z " fill="#FD0000" transform="translate(230.1267547607422,35.864471435546875)"/>
<path d="M0 0 C1.03777588 -0.00315216 2.07555176 -0.00630432 3.14477539 -0.009552 C4.83848267 -0.00651566 4.83848267 -0.00651566 6.56640625 -0.00341797 C7.71681396 -0.00437469 8.86722168 -0.00533142 10.05249023 -0.00631714 C12.49039769 -0.00699916 14.92830695 -0.00514337 17.36621094 -0.00097656 C21.11267143 0.00437136 24.85901202 -0.00092086 28.60546875 -0.00732422 C30.96744818 -0.00666344 33.32942754 -0.00538229 35.69140625 -0.00341797 C36.82054443 -0.0054422 37.94968262 -0.00746643 39.11303711 -0.009552 C40.15081299 -0.00639984 41.18858887 -0.00324768 42.2578125 0 C43.1763501 0.00079559 44.0948877 0.00159119 45.04125977 0.00241089 C47.12890625 0.12939453 47.12890625 0.12939453 48.12890625 1.12939453 C48.38046894 4.76838629 48.31412851 8.42023126 48.31640625 12.06689453 C48.32865234 13.09492187 48.34089844 14.12294922 48.35351562 15.18212891 C48.35544922 16.16375 48.35738281 17.14537109 48.359375 18.15673828 C48.36348389 19.06157959 48.36759277 19.9664209 48.37182617 20.89868164 C48.12890625 23.12939453 48.12890625 23.12939453 46.12890625 25.12939453 C42.49890625 25.12939453 38.86890625 25.12939453 35.12890625 25.12939453 C35.12890625 44.59939453 35.12890625 64.06939453 35.12890625 84.12939453 C39.41890625 84.12939453 43.70890625 84.12939453 48.12890625 84.12939453 C49.81407579 85.81456407 49.25898644 87.91707241 49.26171875 90.22314453 C49.26365234 91.76808594 49.26365234 91.76808594 49.265625 93.34423828 C49.26175781 94.42833984 49.25789063 95.51244141 49.25390625 96.62939453 C49.25970703 98.25554687 49.25970703 98.25554687 49.265625 99.91455078 C49.26433594 100.94451172 49.26304687 101.97447266 49.26171875 103.03564453 C49.26059082 103.98761719 49.25946289 104.93958984 49.25830078 105.92041016 C49.12890625 108.12939453 49.12890625 108.12939453 48.12890625 109.12939453 C45.42169449 109.30268363 42.73786346 109.41377604 40.02734375 109.48095703 C38.7843602 109.51568619 38.7843602 109.51568619 37.51626587 109.55111694 C35.74919049 109.59889587 33.98204432 109.64411228 32.21484375 109.68701172 C29.56348425 109.75291367 26.91270183 109.83118457 24.26171875 109.91064453 C14.20366482 110.18475943 4.13656814 110.36819368 -5.87109375 109.12939453 C-8.28925541 106.71123287 -7.05656394 100.44161634 -7.05859375 97.19189453 C-7.07083984 96.16386719 -7.08308594 95.13583984 -7.09570312 94.07666016 C-7.09763672 93.09503906 -7.09957031 92.11341797 -7.1015625 91.10205078 C-7.10567139 90.19720947 -7.10978027 89.29236816 -7.11401367 88.36010742 C-6.87109375 86.12939453 -6.87109375 86.12939453 -4.87109375 84.12939453 C0.57390625 83.63439453 0.57390625 83.63439453 6.12890625 83.12939453 C6.12890625 64.31939453 6.12890625 45.50939453 6.12890625 26.12939453 C2.49890625 25.79939453 -1.13109375 25.46939453 -4.87109375 25.12939453 C-6.55626329 23.44422499 -6.00117394 21.34171665 -6.00390625 19.03564453 C-6.00583984 17.49070312 -6.00583984 17.49070312 -6.0078125 15.91455078 C-6.00394531 14.83044922 -6.00007813 13.74634766 -5.99609375 12.62939453 C-5.99996094 11.54529297 -6.00382812 10.46119141 -6.0078125 9.34423828 C-6.00652344 8.31427734 -6.00523437 7.28431641 -6.00390625 6.22314453 C-6.00277832 5.27117188 -6.00165039 4.31919922 -6.00048828 3.33837891 C-5.75896764 -0.7847885 -3.61438233 0.0031306 0 0 Z " fill="#FD0000" transform="translate(313.87109375,35.87060546875)"/>
<path d="M0 0 C1.21880859 -0.01224609 2.43761719 -0.02449219 3.69335938 -0.03710938 C5.43649414 -0.04000977 5.43649414 -0.04000977 7.21484375 -0.04296875 C8.28726318 -0.04707764 9.35968262 -0.05118652 10.46459961 -0.05541992 C13.0625 0.1875 13.0625 0.1875 15.0625 2.1875 C15.27985168 4.77535466 15.37388821 7.25948042 15.38134766 9.85009766 C15.39139328 10.64042892 15.4014389 11.43076019 15.41178894 12.24504089 C15.44274134 14.86387385 15.45968933 17.48260405 15.4765625 20.1015625 C15.49526447 21.91475313 15.51483715 23.72793498 15.5352478 25.54110718 C15.58667765 30.31846953 15.62624513 35.09586013 15.66339111 39.87335205 C15.70336291 44.74636892 15.75448629 49.61926717 15.8046875 54.4921875 C15.90157519 64.05720847 15.98593871 73.62229625 16.0625 83.1875 C17.17810303 83.21255615 18.29370605 83.2376123 19.44311523 83.26342773 C23.5674259 83.35733421 27.6915615 83.45759514 31.81567383 83.55981445 C33.6033927 83.603227 35.39115474 83.64489729 37.17895508 83.68481445 C39.74313391 83.7423646 42.30709412 83.80610203 44.87109375 83.87109375 C45.6752623 83.88780624 46.47943085 83.90451874 47.30796814 83.92173767 C52.94862829 84.07362829 52.94862829 84.07362829 54.0625 85.1875 C54.16196453 86.95609193 54.19330217 88.72861451 54.1953125 90.5 C54.19660156 91.57507813 54.19789063 92.65015625 54.19921875 93.7578125 C54.19535156 94.88960938 54.19148437 96.02140625 54.1875 97.1875 C54.19136719 98.31929688 54.19523438 99.45109375 54.19921875 100.6171875 C54.19792969 101.69226563 54.19664062 102.76734375 54.1953125 103.875 C54.19418457 104.86886719 54.19305664 105.86273438 54.19189453 106.88671875 C54.0625 109.1875 54.0625 109.1875 53.0625 110.1875 C51.43821585 110.28620888 49.80965313 110.31548866 48.18237305 110.31689453 C46.61890388 110.32162277 46.61890388 110.32162277 45.02384949 110.32644653 C43.88547134 110.3244223 42.7470932 110.32239807 41.57421875 110.3203125 C40.40550735 110.32126923 39.23679596 110.32222595 38.03266907 110.32321167 C35.54676256 110.3238943 33.06085429 110.32203428 30.57495117 110.31787109 C26.80448273 110.31257651 23.03413632 110.31778578 19.26367188 110.32421875 C16.84635391 110.32355695 14.42903601 110.32227369 12.01171875 110.3203125 C10.89560715 110.32233673 9.77949554 110.32436096 8.62956238 110.32644653 C-11.85851868 110.26648132 -11.85851868 110.26648132 -13.9375 108.1875 C-14.0350858 106.79839367 -14.06381639 105.40437051 -14.06448364 104.01184082 C-14.06730347 103.11159683 -14.07012329 102.21135284 -14.07302856 101.28382874 C-14.07100433 100.28846603 -14.0689801 99.29310333 -14.06689453 98.26757812 C-14.06864685 97.22540634 -14.07039917 96.18323456 -14.07220459 95.10948181 C-14.07662538 91.64588787 -14.07368431 88.18234451 -14.0703125 84.71875 C-14.07098547 82.3236083 -14.07195544 79.92846666 -14.07321167 77.5333252 C-14.07468895 72.50609692 -14.07253311 67.47888638 -14.06787109 62.45166016 C-14.0621738 55.99143309 -14.06545264 49.53124757 -14.07144356 43.07102203 C-14.07504835 38.12298263 -14.07391096 33.17495315 -14.07131577 28.22691345 C-14.07064627 25.84415177 -14.0714757 23.46138919 -14.07379532 21.07862854 C-14.07632051 17.75486851 -14.07248313 14.43117679 -14.06689453 11.10742188 C-14.06891876 10.11205917 -14.07094299 9.11669647 -14.07302856 8.09117126 C-14.07020874 7.19092728 -14.06738892 6.29068329 -14.06448364 5.36315918 C-14.06410662 4.576325 -14.06372959 3.78949081 -14.06334114 2.97881317 C-13.69930478 -2.20314181 -3.82317496 0.00201538 0 0 Z " fill="#FD0000" transform="translate(504.9375,35.8125)"/>
</svg>
